# xmcd
#
# Track frame offsets:
#	150
#	15233
#	35596
#	55074
#	71820
#	87745
#	103987
#	122478
#	138193
#	149393
#	162003
#	177216
#	188362
#	209163
#	219659
#	230695
#	246880
#
# Disc length: 3493 seconds
#
# Revision: 0
# Processed by: cddbd v1.5.2PL0 Copyright (c) Steve Scherf et al.
# Submitted via: EasyCDDAExtractor 16.0.6.1
#
DISCID=f70da311
DTITLE=Νικολαΐδης Απόστολος - Τα δώδεκα ευαγγέλια τ' Αποστόλη-Α. Νικολαΐδης
DYEAR=1980
DGENRE=Ρεμπέτικη
TTITLE0=Το βαπόρι απ' την Περσία [Β. Τσιτσάνη]
TTITLE1=Όσα κι αν πουν για μένα
TTITLE2=Ισόβια σε ρίξανε
TTITLE3=Δεν ξανακάνω φυλακή [Δ. Λαδόπουλου]
TTITLE4=Είσαι γυναίκα άσωτη [Ν. Φ. Τουρκάκη-Ε. Μωραΐτη]
TTITLE5=Μάννα μου το στήθος μου πονάει [Αρ. Μόσχος]
TTITLE6=Το ξεκρέμασα κι απόψε [Μαν. Χιώτη]
TTITLE7=Και μητρώο καθαρό [διασκ. Α. Νικολαΐδη]
TTITLE8=Ο κόσμος άλλαξε [Α. Καλδάρα, διασκ. Α. Νικολαΐδη]
TTITLE9=Πέντε χρόνια δικασμένος [Β. Παπάζογλου]
TTITLE10=Κάντε τόπο να περάσω [Γ. Μητσάκη-Θ. Δερβενιώτη]
TTITLE11=Τα σπαρματσέτα [Αντ. Σακελλάριου]
TTITLE12=Παράνομη ζωή [Χρ. Κολοκοτρώνη-Στ. Χρυσίνη]
TTITLE13=Ασυμόρφωτη [Χρ. Κολοκοτρώνη]
TTITLE14=Ένα πιτσιρίκι [Ι. Γεωργακοπούλου]
TTITLE15=Ο μπακαράς [διασκ. Α. Νικολαΐδη]
TTITLE16=Απόψε μ' εγκατέλειψες [Στ. Χρυσίνη]
EXTD=
EXTT0=
EXTT1=
EXTT2=
EXTT3=
EXTT4=
EXTT5=
EXTT6=
EXTT7=
EXTT8=
EXTT9=
EXTT10=
EXTT11=
EXTT12=
EXTT13=
EXTT14=
EXTT15=
EXTT16=
PLAYORDER=
